<?xml version="1.0" encoding="UTF-8" standalone="no"?>
<!-- Created with Inkscape (http://www.inkscape.org/) -->

<svg
   xmlns:dc="http://purl.org/dc/elements/1.1/"
   xmlns:cc="http://creativecommons.org/ns#"
   xmlns:rdf="http://www.w3.org/1999/02/22-rdf-syntax-ns#"
   xmlns:svg="http://www.w3.org/2000/svg"
   xmlns="http://www.w3.org/2000/svg"
   xmlns:sodipodi="http://sodipodi.sourceforge.net/DTD/sodipodi-0.dtd"
   xmlns:inkscape="http://www.inkscape.org/namespaces/inkscape"
   width="292"
   height="292"
   id="svg2"
   version="1.1"
   inkscape:version="0.48.4 r9939"
   sodipodi:docname="spiderProject.svg"
   inkscape:export-filename="/home/jheulot/git/spider/icons/spiderProject.png"
   inkscape:export-xdpi="4.9299998"
   inkscape:export-ydpi="4.9299998">
  <defs
     id="defs4" />
  <sodipodi:namedview
     id="base"
     pagecolor="#ffffff"
     bordercolor="#666666"
     borderopacity="1.0"
     inkscape:pageopacity="0.0"
     inkscape:pageshadow="2"
     inkscape:zoom="1.979899"
     inkscape:cx="177.40899"
     inkscape:cy="118.46902"
     inkscape:document-units="px"
     inkscape:current-layer="layer1"
     showgrid="false"
     fit-margin-top="7.23"
     fit-margin-left="0"
     fit-margin-right="0"
     fit-margin-bottom="7.23"
     inkscape:window-width="1680"
     inkscape:window-height="974"
     inkscape:window-x="0"
     inkscape:window-y="24"
     inkscape:window-maximized="1" />
  <metadata
     id="metadata7">
    <rdf:RDF>
      <cc:Work
         rdf:about="">
        <dc:format>image/svg+xml</dc:format>
        <dc:type
           rdf:resource="http://purl.org/dc/dcmitype/StillImage" />
        <dc:title></dc:title>
      </cc:Work>
    </rdf:RDF>
  </metadata>
  <g
     inkscape:label="Layer 1"
     inkscape:groupmode="layer"
     id="layer1"
     transform="translate(-192.71429,-97.735037)">
    <g
       id="g3104"
       transform="translate(-111.94341,-98.194006)">
      <g
         id="g3088">
        <path
           style="fill:#000000;stroke:#000000;stroke-width:1px;stroke-linecap:butt;stroke-linejoin:miter;stroke-opacity:1"
           d="m 396.07143,258.47693 c 16.0216,-2.97891 31.25848,-6.05076 63.76949,9.10869 10.13405,6.25095 12.48829,13.28975 22.82868,37.43192 l 0.18754,3.85987 c -11.48286,-8.06836 -21.63239,-30.07574 -30.27157,-33.86839 -8.63917,-3.79266 -35.74328,-13.7882 -56.51414,-16.53209 z"
           id="path3000"
           inkscape:connector-curvature="0"
           sodipodi:nodetypes="cccczc" />
        <path
           style="fill:#000000;stroke:#000000;stroke-width:1px;stroke-linecap:butt;stroke-linejoin:miter;stroke-opacity:1"
           d="m 596.07143,258.47693 c -16.0216,-2.97891 -31.25848,-6.05076 -63.76949,9.10869 -10.13405,6.25095 -12.48829,13.28975 -22.82868,37.43192 l -0.18754,3.85987 c 11.48286,-8.06836 21.63239,-30.07574 30.27157,-33.86839 8.63917,-3.79266 35.74328,-13.7882 56.51414,-16.53209 z"
           id="path3000-3"
           inkscape:connector-curvature="0"
           sodipodi:nodetypes="cccczc" />
      </g>
      <g
         transform="translate(0.267855,0)"
         id="g3084">
        <path
           style="fill:#000000;stroke:#000000;stroke-width:1px;stroke-linecap:butt;stroke-linejoin:miter;stroke-opacity:1"
           d="m 481.07143,292.8979 -3.21429,-7.32143 c -4.36545,-59.40772 -28.83838,-78.88102 -39.10714,-88.39286 15.93285,0.45752 43.80837,36.92268 44.64286,57.5 0.83449,20.57732 1.07142,30.53572 1.07142,30.53572 z"
           id="path3020"
           inkscape:connector-curvature="0"
           sodipodi:nodetypes="ccczcc" />
        <path
           style="fill:#000000;stroke:#000000;stroke-width:1px;stroke-linecap:butt;stroke-linejoin:miter;stroke-opacity:1"
           d="m 510.53572,292.8979 3.21429,-7.32143 c 4.36545,-59.40772 28.83838,-78.88102 39.10714,-88.39286 -15.93285,0.45752 -43.80837,36.92268 -44.64286,57.5 -0.83449,20.57732 -1.07142,30.53572 -1.07142,30.53572 z"
           id="path3020-9"
           inkscape:connector-curvature="0"
           sodipodi:nodetypes="ccczcc" />
      </g>
      <g
         transform="translate(0.089285,0)"
         id="g3092">
        <path
           style="fill:#000000;stroke:#000000;stroke-width:1px;stroke-linecap:butt;stroke-linejoin:miter;stroke-opacity:1"
           d="m 481.25001,311.11218 c -44.17482,-28.29301 -68.32683,-12.64928 -78.39286,-3.92857 11.4548,-3.19692 41.18352,-6.45793 51.78571,-0.35714 10.60219,6.10078 18.31015,10.2791 29.28571,9.10714 0,0 -1.13038,-3.82985 -2.67856,-4.82143 z"
           id="path3040"
           inkscape:connector-curvature="0"
           sodipodi:nodetypes="sczcs" />
        <path
           style="fill:#000000;stroke:#000000;stroke-width:1px;stroke-linecap:butt;stroke-linejoin:miter;stroke-opacity:1"
           d="m 510.71428,311.11218 c 44.17482,-28.29301 68.32683,-12.64928 78.39286,-3.92857 -11.4548,-3.19692 -41.18352,-6.45793 -51.78571,-0.35714 -10.60219,6.10078 -18.31015,10.2791 -29.28571,9.10714 0,0 1.13038,-3.82985 2.67856,-4.82143 z"
           id="path3040-2"
           inkscape:connector-curvature="0"
           sodipodi:nodetypes="sczcs" />
      </g>
      <g
         transform="translate(0.26787165,0)"
         id="g3100">
        <path
           sodipodi:type="arc"
           style="fill:#000000;fill-opacity:1;stroke:#000000;stroke-width:3;stroke-linecap:butt;stroke-linejoin:miter;stroke-miterlimit:4;stroke-opacity:1;stroke-dasharray:none;stroke-dashoffset:0"
           id="path3060"
           sodipodi:cx="495.80356"
           sodipodi:cy="301.20148"
           sodipodi:rx="14.375"
           sodipodi:ry="20.982143"
           d="m 510.17856,301.20148 c 0,11.58811 -6.43591,20.98214 -14.375,20.98214 -7.93909,0 -14.375,-9.39403 -14.375,-20.98214 0,-11.58812 6.43591,-20.98215 14.375,-20.98215 7.93909,0 14.375,9.39403 14.375,20.98215 z" />
        <path
           sodipodi:type="arc"
           style="fill:#000000;fill-opacity:1;stroke:#000000;stroke-width:3;stroke-linecap:butt;stroke-linejoin:miter;stroke-miterlimit:4;stroke-opacity:1;stroke-dasharray:none;stroke-dashoffset:0"
           id="path3062"
           sodipodi:cx="494.82144"
           sodipodi:cy="344.77289"
           sodipodi:rx="17.321428"
           sodipodi:ry="25.089285"
           d="m 512.14287,344.77289 c 0,13.85643 -7.75507,25.08928 -17.32143,25.08928 -9.56636,0 -17.32143,-11.23285 -17.32143,-25.08928 0,-13.85643 7.75507,-25.08929 17.32143,-25.08929 9.56636,0 17.32143,11.23286 17.32143,25.08929 z"
           transform="translate(0.9821167,0.71428572)" />
      </g>
      <g
         transform="translate(-0.360855,0)"
         id="g3096">
        <path
           style="fill:#000000;stroke:#000000;stroke-width:1px;stroke-linecap:butt;stroke-linejoin:miter;stroke-opacity:1"
           d="m 486.78572,318.79075 c -40.99766,19.14896 -35.54344,53.60805 -42.5,63.92857 12.68779,-7.92791 18.61201,-37.51138 38.21428,-52.32142 l 9.30056,-7.60716 z"
           id="path3064"
           inkscape:connector-curvature="0"
           sodipodi:nodetypes="ccccc" />
        <path
           style="fill:#000000;stroke:#000000;stroke-width:1px;stroke-linecap:butt;stroke-linejoin:miter;stroke-opacity:1"
           d="m 506.07885,318.79075 c 40.99766,19.14896 35.54344,53.60805 42.5,63.92857 -12.68779,-7.92791 -18.61201,-37.51138 -38.21428,-52.32142 l -9.30056,-7.60716 z"
           id="path3064-5"
           inkscape:connector-curvature="0"
           sodipodi:nodetypes="ccccc" />
      </g>
    </g>
  </g>
</svg>
